<svg width="1145" height="629" viewBox="0 0 1145 629" fill="none" xmlns="http://www.w3.org/2000/svg">
<rect width="1145" height="629" fill="#070809"/>
<g filter="url(#filter0_d_19_2)">
<path d="M806.692 180.75L691.707 113.875M806.692 180.75V314.5M806.692 180.75L576.719 314.5M691.707 113.875L576.719 47L461.614 113.787M691.707 113.875L576.719 180.75M691.707 113.875L921.68 515.125M691.707 113.875L576.719 314.5M806.692 314.5V448.25M806.692 314.5L691.707 515.125M806.692 314.5L461.731 515.125M806.692 314.5L921.68 113.875M806.692 314.5L921.68 515.125M806.692 314.5L1036.66 448.25L921.68 515.125M806.692 314.5L1036.66 180.75L921.68 113.875M806.692 314.5H576.719M576.719 314.5L346.439 180.75M576.719 314.5L461.614 113.787M576.719 314.5L691.707 515.125M576.719 314.5L461.731 515.125M576.719 314.5H346.439M576.719 314.5V448.25M576.719 314.5V180.75M576.719 314.5L921.68 515.125M576.719 314.5L921.68 113.875M576.719 314.5L231.452 515.125M576.719 314.5L231.452 113.875M806.692 448.25L691.707 515.125M806.692 448.25L921.68 515.125M691.707 515.125L576.719 582L461.731 515.125M691.707 515.125L346.439 314.5M691.707 515.125L576.719 448.25M691.707 515.125L921.68 113.875M346.439 448.25L461.731 515.125M346.439 448.25V314.5M346.439 448.25L231.452 515.125M461.731 515.125L576.719 448.25M461.731 515.125L346.439 314.5M461.731 515.125L346.446 314.513L231.452 113.875M346.439 314.5V180.75M346.439 314.5L231.452 113.875M346.439 314.5L231.452 515.125M346.439 314.5L116.465 448.25L231.452 515.125M346.439 314.5L116.465 180.75L231.452 113.875M231.452 515.125L346.474 314.412L461.614 113.787M346.439 180.75L461.614 113.787M461.614 113.787L576.719 180.75" stroke="#202020" stroke-opacity="0.7" stroke-width="0.8"/>
<path d="M161.629 190.123L346.523 314.499L161.629 441.853L21 314.499L161.629 190.123Z" stroke="#202020" stroke-opacity="0.7" stroke-width="0.8"/>
<path d="M995.159 440.96L807.135 314.501L995.159 188.04L1124.03 314.501L995.159 440.96Z" stroke="#202020" stroke-opacity="0.7" stroke-width="0.8"/>
<path d="M346.5 314.5L576.71 180.8L806.5 314.43" stroke="#202020" stroke-opacity="0.7" stroke-width="0.8"/>
</g>
<defs>
<filter id="filter0_d_19_2" x="16.4004" y="46.5374" width="1112.2" height="543.925" filterUnits="userSpaceOnUse" color-interpolation-filters="sRGB">
<feFlood flood-opacity="0" result="BackgroundImageFix"/>
<feColorMatrix in="SourceAlpha" type="matrix" values="0 0 0 0 0 0 0 0 0 0 0 0 0 0 0 0 0 0 127 0" result="hardAlpha"/>
<feOffset dy="4"/>
<feGaussianBlur stdDeviation="2"/>
<feComposite in2="hardAlpha" operator="out"/>
<feColorMatrix type="matrix" values="0 0 0 0 0 0 0 0 0 0 0 0 0 0 0 0 0 0 0.25 0"/>
<feBlend mode="normal" in2="BackgroundImageFix" result="effect1_dropShadow_19_2"/>
<feBlend mode="normal" in="SourceGraphic" in2="effect1_dropShadow_19_2" result="shape"/>
</filter>
</defs>
</svg>
